<?xml version="1.0" encoding="utf-8"?>
<!-- Generator: Adobe Illustrator 24.1.1, SVG Export Plug-In . SVG Version: 6.00 Build 0)  -->
<svg version="1.1" id="Layer_1" xmlns="http://www.w3.org/2000/svg" xmlns:xlink="http://www.w3.org/1999/xlink" x="0px" y="0px"
	 viewBox="0 0 1000 1000" style="enable-background:new 0 0 1000 1000;" xml:space="preserve">
<style type="text/css">
	.st0{fill:#D8163D;}
	.st1{fill:#019145;}
	.st2{fill:#E94F23;}
	.st3{fill:#8BB886;}
	.st4{fill:#EB958F;}
	.st5{fill:#83B47F;}
	.st6{fill:#F1B2AC;}
	.st7{fill:#EA8B87;}
	.st8{fill:#ED9E98;}
	.st9{fill:#ED9C96;}
	.st10{fill:#F7B493;}
	.st11{fill:#F7B18E;}
	.st12{fill:#F0AAA4;}
	.st13{fill:#F9BFA1;}
	.st14{fill:#A5C69F;}
	.st15{fill:#ED9D96;}
	.st16{fill:#EC9792;}
	.st17{fill:#F5A47E;}
	.st18{fill:#ABC9A5;}
	.st19{fill:#EDA09A;}
	.st20{fill:#F5A680;}
</style>
<path class="st0" d="M247.98,826.55c-2.91,0.35-5.81,0.71-8.72,1.06c-0.38,0.05-0.76,0.11-1.14,0.16c-0.6,0.09-1.2,0.17-1.8,0.26
	c-0.49,0.07-0.97,0.13-1.46,0.2c-0.6,0.09-1.2,0.18-1.8,0.27c-0.38,0.05-0.76,0.1-1.13,0.15c-3.42,0.46-6.84,0.93-10.25,1.39
	c-0.32,0.04-0.65,0.07-0.98,0.11c-0.77,0.1-1.54,0.2-2.31,0.29c-0.53,0.07-1.06,0.14-1.59,0.21c-0.77,0.09-1.54,0.19-2.32,0.28
	c-0.83-0.26-1.59-0.27-2.16,0.53c-7.09,0.69-14.18,1.38-21.26,2.08c-1.35,0.13-2.7,0.29-4.05,0.44c-0.33,0.02-0.65,0.04-0.98,0.07
	c-1.3,0.14-2.61,0.27-3.91,0.41c-0.49,0.05-0.98,0.09-1.46,0.14c-0.92,0.1-1.85,0.2-2.77,0.29c-0.54,0.05-1.08,0.11-1.63,0.16
	c-1.14,0.11-2.28,0.21-3.42,0.32c-0.49,0.04-0.97,0.08-1.46,0.12c-1.47,0.14-2.93,0.29-4.4,0.43c-0.65,0.03-1.3,0.06-1.95,0.09
	c-1.47,0.14-2.93,0.27-4.4,0.41c-0.49,0.04-0.98,0.07-1.46,0.11c-1.3,0.11-2.61,0.21-3.91,0.32c-0.81,0.06-1.62,0.12-2.44,0.18
	c-3.74,0.29-7.49,0.57-11.23,0.86c-0.33,0.01-0.65,0.03-0.98,0.04c-2.44,0.16-4.88,0.31-7.32,0.47c-0.33,0.02-0.65,0.04-0.98,0.05
	c-1.79,0.13-3.58,0.25-5.37,0.38c-0.81,0.04-1.63,0.08-2.44,0.13c-2.12,0.11-4.24,0.21-6.36,0.32c-1-0.5-1.98-0.47-2.92,0.16
	c-10.42,0.45-20.83,0.9-31.25,1.35c-1.63,0.05-3.25,0.09-4.88,0.14c-3.91,0.11-7.82,0.21-11.72,0.32c-1.79,0.03-3.58,0.06-5.37,0.09
	c-9.37,0.08-18.74,0.15-28.12,0.23c-0.06-0.24-0.13-0.47-0.19-0.71c5.62-0.87,11.25-1.73,16.87-2.62c5.71-0.91,11.43-1.8,17.13-2.8
	c3.18-0.55,6.31-1.33,9.48-1.94c9.28-1.81,18.59-3.43,27.83-5.41c10.7-2.3,21.35-4.88,32.01-7.39c6.54-1.54,13.13-2.96,19.59-4.8
	c17.38-4.98,34.8-9.87,52.04-15.32c42.87-13.55,84.45-30.32,124.38-51.05c34.54-17.93,67.28-38.64,97.64-63.05
	c29.75-23.92,56.46-50.81,79.39-81.38c18.98-25.31,34.52-52.58,47.12-81.59c10.09-23.23,21.58-45.76,35.52-66.97
	c10.68-16.25,22.82-31.27,37.23-44.4c15.59-14.2,33.18-25.37,52.06-34.59c13.66-6.67,27.69-12.48,41.95-17.71
	c14.14-5.18,28.35-10.16,42.53-15.24c12.99-4.65,26.09-9.02,38.95-14.01c20.33-7.88,39.53-17.95,56.95-31.22
	c22.89-17.44,39.31-39.61,48.82-66.79c2.98-8.51,5.53-17.16,8.35-25.73c0.7-2.13,1.74-4.15,2.57-6.24c0.46-1.17,0.8-2.38,0.87-3.85
	c-0.47,0.32-0.94,0.65-1.42,0.97c-6.13,4.1-10.47,9.67-13.55,16.31c-0.92,1.99-1.86,3.98-2.9,5.91c-3.6,6.74-8.86,11.36-16.53,12.91
	c-1.14,0.23-2.29,0.45-3.44,0.67c-0.04,0.01-0.11-0.11-0.27-0.28c1.02-1.05,2.06-2.1,3.07-3.18c3.11-3.33,5.14-7.28,6.57-11.58
	c2.08-6.25,5.85-11.42,10.5-15.95c4.75-4.62,10.56-6.89,17.17-7.15c0.65-0.03,1.3,0,2.09,0c6.27-12.33,14.99-22.41,27.04-29.39
	c6.61-3.83,14.14-6.62,19.09-7.12c-0.13,0.23-0.2,0.49-0.36,0.63c-7.39,6.23-12.46,14.16-16.26,22.88
	c-2.62,6.02-4.76,12.27-6.85,18.51c-1.42,4.23-2.47,8.59-3.51,12.93c-0.52,2.18-0.57,4.46-0.95,6.68c-0.45,2.6-1.11,5.17-1.54,7.78
	c-0.55,3.36-0.87,6.76-1.44,10.12c-6.01,35.4-22.87,64.85-48.94,89.28c-15.05,14.1-31.88,25.72-49.64,36.08
	c-15.55,9.08-30.42,19.16-44.2,30.8c-17.13,14.47-31.64,31.12-42.56,50.79c-6.61,11.92-11.9,24.41-16.33,37.28
	c-2.74,7.96-5.29,16-7.86,24.02c-3.79,11.82-7.43,23.68-11.3,35.47c-5.15,15.66-11,31.03-19.1,45.47
	c-9.88,17.62-21.74,33.77-35.31,48.7c-22.92,25.21-49.28,46.32-77.63,65.04c-30.49,20.13-62.71,37.08-96.02,52.01
	c-22.56,10.11-45.52,19.19-68.82,27.49c-20.38,7.25-40.95,13.87-61.71,19.9c-8.22,2.39-16.49,4.63-24.76,6.85
	c-7.56,2.03-15.14,4.04-22.75,5.87c-5.48,1.32-11.03,2.28-16.54,3.48c-4.22,0.92-8.4,2.02-12.63,2.91
	c-5.71,1.2-11.44,2.26-17.17,3.38c-4.28,0.83-8.55,1.65-12.84,2.45c-0.47,0.09-0.97,0.03-1.46,0.04c-0.37,0.04-0.74,0.09-1.11,0.13
	c-0.45,0.07-0.9,0.14-1.35,0.22C248.79,825.59,248.27,825.72,247.98,826.55z M937.75,186.38c-3.33,0.05-6.15,2.89-6.04,6.05
	c0.11,3.13,3.12,6.05,6.21,6.03c3.33-0.02,5.94-2.77,5.83-6.16C943.64,188.69,941.24,186.32,937.75,186.38z"/>
<path class="st1" d="M179.66,733.36c9.53-3.41,19.09-6.75,28.58-10.26c23.93-8.84,47.46-18.64,70.17-30.31
	c27.75-14.26,53.8-31.08,77.57-51.34c26.31-22.41,49-48.06,68.31-76.68c7.51-11.13,14.57-22.55,22.01-33.72
	c13.54-20.34,28.1-39.91,44.33-58.21c29.01-32.7,63.36-58.01,103.46-75.5c17.54-7.65,35.48-14.18,53.74-19.87
	c8.5-2.65,17.04-5.14,25.57-7.69c0.4-0.12,0.88-0.02,1.49-0.02c-0.35,1.24-1.34,1.37-2.07,1.71c-10.09,4.58-19.75,9.96-29.08,15.94
	c-18.93,12.13-36.12,26.38-51.68,42.59c-24.29,25.31-43.64,54.02-58.22,85.86c-15.39,33.63-35.97,63.68-61.15,90.64
	c-26.35,28.2-56.14,52.09-89.7,71.21c-16.01,9.12-32.78,16.6-49.94,23.26c-13.73,5.33-27.65,10.12-41.86,13.97
	c-11.1,3.01-22.28,5.73-33.46,8.45c-5.6,1.36-11.24,2.56-16.91,3.59c-6.28,1.14-12.61,2.01-18.92,2.97
	c-3.28,0.5-6.57,0.92-9.86,1.38c-0.37,0.05-0.75,0.09-1.12,0.14c-0.93,0.12-1.86,0.24-2.79,0.36c-0.37,0.04-0.75,0.07-1.12,0.11
	c-1.3,0.15-2.6,0.3-3.91,0.45c-0.33,0.02-0.65,0.05-0.98,0.07c-1.14,0.13-2.28,0.26-3.42,0.39c-0.49,0.05-0.97,0.09-1.46,0.14
	c-5.85,0.44-11.7,0.88-17.55,1.33C179.7,733.99,179.68,733.68,179.66,733.36z"/>
<path class="st2" d="M785.67,590.84c-0.58,4.09-1.01,8.22-1.79,12.27c-0.65,3.39-1.88,6.66-2.54,10.04
	c-2.03,10.36-5.88,20.1-10.15,29.67c-8.26,18.5-19.67,34.94-32.94,50.19c-21.14,24.28-47.18,41.37-76.99,53.01
	c-17.63,6.89-35.87,11.53-54.5,14.8c-8.69,1.52-17.45,2.29-26.19,3.22c-0.49,0.04-0.98,0.08-1.46,0.11
	c-2.12,0.15-4.23,0.29-6.35,0.44c-0.65,0.02-1.3,0.03-1.95,0.05c-6.47,0.08-12.94,0.16-19.41,0.24c-0.05-0.25-0.1-0.51-0.15-0.76
	c9.76-5.55,19.61-10.92,29.25-16.68c25.48-15.22,49.6-32.33,71.66-52.26c22.77-20.58,42.33-43.86,58.82-69.75
	c10.26-16.11,19.13-32.88,25.65-50.87c4.97-13.71,8.68-27.77,11.7-42.02c0.82-3.87,1.57-7.76,2.33-11.64
	c1.38-7.06,2.86-14.1,4.08-21.19c5.05-29.33,16.01-56.24,32.9-80.73c2.86-4.15,6.05-8.06,9.1-12.08c0.24-0.31,0.53-0.58,0.98-0.8
	c-2.99,9.85-5.46,19.79-7.07,29.93c-0.06,0.37-0.11,0.73-0.17,1.1c-0.11,0.61-0.21,1.22-0.32,1.83c-0.05,0.33-0.1,0.65-0.15,0.98
	c-0.3,1.95-0.6,3.9-0.9,5.86c-0.04,0.37-0.09,0.73-0.13,1.1c-0.11,0.77-0.23,1.55-0.34,2.32c-0.06,0.53-0.13,1.05-0.19,1.58
	c-0.09,0.78-0.18,1.55-0.27,2.33c-0.05,0.49-0.11,0.98-0.16,1.47c-0.11,0.98-0.22,1.95-0.34,2.93c-0.03,0.33-0.05,0.65-0.08,0.98
	c-0.15,1.95-0.31,3.91-0.46,5.86c-0.02,0.49-0.05,0.98-0.07,1.47c-0.8,10.1-0.64,20.2-0.17,30.3c0.05,1.13,0.13,2.26,0.19,3.39
	c0.01,0.65,0.03,1.3,0.04,1.95c0.41,9.49,0.86,18.98,1.21,28.48c0.59,16.16,0.56,32.32-0.82,48.45c-0.09,1.05-0.24,2.1-0.37,3.14
	c-0.02,0.33-0.03,0.65-0.05,0.98c-0.15,1.3-0.31,2.6-0.46,3.91c-0.04,0.38-0.09,0.75-0.13,1.13c-0.1,0.76-0.2,1.53-0.3,2.29
	C786.02,590.18,785.84,590.51,785.67,590.84z"/>
<path class="st3" d="M682.33,367.5c-2.33,0.96-4.52,2.37-7.35,2.77C676.04,368.75,678.19,367.97,682.33,367.5z"/>
<path class="st4" d="M62.01,841.31c1.79-0.03,3.58-0.06,5.37-0.09C65.59,841.25,63.8,841.28,62.01,841.31z"/>
<path class="st4" d="M79.1,840.9c1.63-0.05,3.25-0.09,4.88-0.14C82.35,840.81,80.73,840.85,79.1,840.9z"/>
<path class="st5" d="M179.66,733.36c0.02,0.32,0.04,0.63,0.06,0.95c-0.82,0.08-1.64,0.17-2.46,0.25c-0.04-0.18-0.08-0.35-0.12-0.53
	C177.99,733.81,178.82,733.58,179.66,733.36z"/>
<path class="st6" d="M33.71,840.83c0.06,0.24,0.13,0.47,0.19,0.71c-0.97,0.38-1.9,0.4-2.8-0.01c-0.01-0.19-0.01-0.39-0.02-0.58
	C31.96,840.91,32.83,840.87,33.71,840.83z"/>
<path class="st7" d="M115.23,839.41c0.94-0.63,1.92-0.65,2.92-0.16C117.18,839.3,116.21,839.36,115.23,839.41z"/>
<path class="st8" d="M124.51,838.93c0.81-0.04,1.63-0.08,2.44-0.13C126.14,838.85,125.33,838.89,124.51,838.93z"/>
<path class="st9" d="M152.83,837c0.81-0.06,1.62-0.12,2.44-0.18C154.46,836.87,153.65,836.93,152.83,837z"/>
<path class="st10" d="M570.8,764.65c0.65-0.02,1.3-0.03,1.95-0.05C572.1,764.62,571.45,764.64,570.8,764.65z"/>
<path class="st11" d="M787.11,501.46c-0.01-0.65-0.03-1.3-0.04-1.95C787.08,500.16,787.09,500.81,787.11,501.46z"/>
<path class="st9" d="M165.04,835.98c0.65-0.03,1.3-0.06,1.95-0.09C166.34,835.92,165.69,835.95,165.04,835.98z"/>
<path class="st12" d="M212.32,831.45c0.57-0.79,1.34-0.79,2.16-0.53C213.76,831.1,213.04,831.27,212.32,831.45z"/>
<path class="st13" d="M787.04,465.82c0.02-0.49,0.05-0.98,0.07-1.47C787.09,464.85,787.07,465.33,787.04,465.82z"/>
<path class="st9" d="M159.18,836.5c0.49-0.04,0.98-0.07,1.46-0.11C160.16,836.42,159.67,836.46,159.18,836.5z"/>
<path class="st13" d="M788.42,450.8c0.06-0.53,0.13-1.05,0.19-1.58C789.12,449.82,788.97,450.33,788.42,450.8z"/>
<path class="st13" d="M787.99,454.6c0.05-0.49,0.11-0.98,0.16-1.47C788.64,453.68,788.51,454.16,787.99,454.6z"/>
<path class="st14" d="M197.27,732.98c0.49-0.05,0.97-0.09,1.46-0.14C198.24,732.89,197.75,732.94,197.27,732.98z"/>
<path class="st10" d="M579.1,764.17c0.49-0.04,0.98-0.08,1.46-0.11C580.08,764.09,579.59,764.13,579.1,764.17z"/>
<path class="st9" d="M176.27,835.02c0.54-0.05,1.08-0.11,1.63-0.16C177.35,834.91,176.81,834.97,176.27,835.02z"/>
<path class="st7" d="M247.98,826.55c0.29-0.82,0.81-0.95,1.52-0.51C248.99,826.2,248.48,826.37,247.98,826.55z"/>
<path class="st15" d="M234.86,828.22c0.49-0.07,0.97-0.13,1.46-0.2C235.84,828.09,235.35,828.15,234.86,828.22z"/>
<path class="st12" d="M216.8,830.64c0.53-0.07,1.06-0.14,1.59-0.21C217.86,830.5,217.33,830.57,216.8,830.64z"/>
<path class="st16" d="M180.66,834.57c0.49-0.05,0.98-0.09,1.46-0.14C181.64,834.47,181.15,834.52,180.66,834.57z"/>
<path class="st9" d="M171.39,835.46c0.49-0.04,0.97-0.08,1.46-0.12C172.36,835.38,171.87,835.42,171.39,835.46z"/>
<path class="st13" d="M789.98,439.95c0.05-0.33,0.1-0.65,0.15-0.98C790.08,439.29,790.03,439.62,789.98,439.95z"/>
<path class="st15" d="M238.12,827.76c0.38-0.05,0.76-0.11,1.14-0.16C238.88,827.66,238.5,827.71,238.12,827.76z"/>
<path class="st17" d="M551.24,764.13c0.05,0.25,0.1,0.51,0.15,0.76c-0.3-0.06-0.61-0.11-0.91-0.17
	C550.74,764.53,550.99,764.33,551.24,764.13z"/>
<path class="st16" d="M186.03,834.02c0.33-0.02,0.65-0.04,0.98-0.07C186.69,833.98,186.36,834,186.03,834.02z"/>
<path class="st7" d="M250.85,825.82c0.37-0.04,0.74-0.09,1.11-0.13C251.58,825.73,251.22,825.77,250.85,825.82z"/>
<path class="st14" d="M202.15,732.46c0.33-0.02,0.65-0.05,0.98-0.07C202.8,732.41,202.47,732.44,202.15,732.46z"/>
<path class="st15" d="M231.93,828.64c0.38-0.05,0.76-0.1,1.13-0.15C232.69,828.54,232.31,828.59,231.93,828.64z"/>
<path class="st18" d="M210.94,731.47c0.37-0.05,0.75-0.09,1.12-0.14C211.69,731.38,211.31,731.43,210.94,731.47z"/>
<path class="st12" d="M220.71,830.13c0.32-0.04,0.65-0.07,0.98-0.11C221.36,830.06,221.03,830.1,220.71,830.13z"/>
<path class="st11" d="M785.67,590.84c0.17-0.33,0.34-0.67,0.51-1C786.77,590.56,785.99,590.59,785.67,590.84z"/>
<path class="st19" d="M140.63,837.9c0.33-0.01,0.65-0.03,0.98-0.04C141.28,837.87,140.95,837.88,140.63,837.9z"/>
<path class="st18" d="M207.03,731.94c0.37-0.04,0.75-0.07,1.12-0.11C207.78,731.87,207.41,731.9,207.03,731.94z"/>
<path class="st11" d="M786.49,587.55c0.04-0.38,0.09-0.75,0.13-1.13C786.58,586.8,786.54,587.18,786.49,587.55z"/>
<path class="st20" d="M787.08,582.52c0.02-0.33,0.03-0.65,0.05-0.98C787.11,581.87,787.1,582.19,787.08,582.52z"/>
<path class="st13" d="M790.45,437.13c0.06-0.37,0.11-0.73,0.17-1.1C790.56,436.4,790.5,436.77,790.45,437.13z"/>
<path class="st13" d="M787.58,458.5c0.03-0.33,0.05-0.65,0.08-0.98C787.63,457.85,787.6,458.17,787.58,458.5z"/>
<path class="st13" d="M788.95,446.9c0.04-0.37,0.09-0.73,0.13-1.1C789.04,446.17,789,446.53,788.95,446.9z"/>
<path class="st8" d="M132.32,838.42c0.33-0.02,0.65-0.04,0.98-0.05C132.98,838.39,132.65,838.4,132.32,838.42z"/>
</svg>
